<svg version="1.1" xmlns="http://www.w3.org/2000/svg" xmlns:xlink="http://www.w3.org/1999/xlink" width="17.93026" height="10.58548" viewBox="0,0,17.93026,10.58548"><g transform="translate(-231.0236,-174.70726)"><g data-paper-data="{&quot;isPaintingLayer&quot;:true}" fill-rule="nonzero" stroke-linejoin="miter" stroke-miterlimit="10" stroke-dasharray="" stroke-dashoffset="0" style="mix-blend-mode: normal"><path d="M233.22268,183.58401c0,0 -0.89139,-1.04072 -0.99862,-2.8053c-0.08197,-1.3488 -0.16448,-2.70644 -0.20045,-3.29838c-0.03573,-0.58794 0.41401,-0.78892 0.41401,-0.78892c0,0 0.17368,-0.48752 1.2081,-0.51001c3.0655,-0.06665 9.38108,-0.19872 11.2877,-0.19872c1.12488,0 1.63448,-0.61974 2.43165,0c0.79717,0.61974 0.5888,1.90032 0.5888,2.71727c0,0.18833 -0.2944,2.43806 -0.2944,2.71678c0,0.2616 -0.0053,0.50479 -0.01448,0.7298c-0.05923,1.45157 -0.57432,1.55559 -0.57432,1.55559c0,0 -0.69666,0.11812 -1.05778,0.11812c-0.49999,0 -0.5123,0.47248 -1.472,0.47248c-3.32644,0 -8.60304,0 -10.20589,0c-0.91555,0 -1.11232,-0.70873 -1.11232,-0.70873z" fill="#fff700" stroke="#000000" stroke-width="2" stroke-linecap="butt"/><path d="M233.85363,179.73271v-3.16682h5.78095v3.16682z" fill="#ffffff" stroke="#000000" stroke-width="0" stroke-linecap="butt"/><path d="M240.10649,179.73271v-3.16682h5.78095v3.16682z" fill="#ffffff" stroke="#000000" stroke-width="0" stroke-linecap="butt"/><path d="M235.68229,181.89778h8.73041" fill="none" stroke="#000000" stroke-width="2" stroke-linecap="round"/><path d="M235.74128,178.76328v-1.22795h2.24159v1.22795z" fill="#000000" stroke="none" stroke-width="0" stroke-linecap="butt"/><path d="M241.93516,178.76328v-1.22795h2.24159v1.22795z" fill="#000000" stroke="none" stroke-width="0" stroke-linecap="butt"/></g></g></svg>