<svg version="1.1" xmlns="http://www.w3.org/2000/svg" xmlns:xlink="http://www.w3.org/1999/xlink" width="56" height="56" viewBox="0,0,56,56"><g transform="translate(-212,-152)"><g data-paper-data="{&quot;isPaintingLayer&quot;:true}" fill-rule="nonzero" stroke="#000000" stroke-linecap="butt" stroke-linejoin="miter" stroke-miterlimit="10" stroke-dasharray="" stroke-dashoffset="0" style="mix-blend-mode: normal"><path d="M214.5,205.5v-51h51v51z" fill="#ffffff" stroke-width="5"/><path d="M228.01661,180c0,-6.61824 5.36514,-11.98339 11.98339,-11.98339c6.61824,0 11.98339,5.36514 11.98339,11.98339c0,6.61824 -5.36514,11.98339 -11.98339,11.98339c-6.61824,0 -11.98339,-5.36514 -11.98339,-11.98339z" fill="none" stroke-width="10"/><path d="M231.89003,169.59019c0,1.20332 -0.85652,2.1788 -1.91309,2.1788c-1.05657,0 -1.91309,-0.97548 -1.91309,-2.1788c0,-1.20332 0.85652,-2.1788 1.91309,-2.1788c1.05657,0 1.91309,0.97548 1.91309,2.1788z" fill="none" stroke-width="7.5"/><path d="M241.7318,165.39082c0,1.20332 -0.85652,2.17879 -1.91309,2.17879c-1.05657,0 -1.91309,-0.97548 -1.91309,-2.17879c0,-1.20332 0.85652,-2.1788 1.91309,-2.1788c1.05657,0 1.91309,0.97548 1.91309,2.1788z" fill="none" stroke-width="7.5"/><path d="M252.54193,170.63291c0,1.20332 -0.85652,2.17879 -1.91309,2.17879c-1.05657,0 -1.91309,-0.97548 -1.91309,-2.17879c0,-1.20332 0.85652,-2.1788 1.91309,-2.1788c1.05657,0 1.91309,0.97548 1.91309,2.1788z" fill="none" stroke-width="7.5"/><path d="M256.0894,180.47468c0,1.20332 -0.85652,2.17879 -1.91309,2.17879c-1.05657,0 -1.91309,-0.97548 -1.91309,-2.17879c0,-1.20332 0.85652,-2.1788 1.91309,-2.1788c1.05657,0 1.91309,0.97548 1.91309,2.1788z" fill="none" stroke-width="7.5"/><path d="M251.89003,189.59019c0,1.20332 -0.85652,2.17879 -1.91309,2.17879c-1.05657,0 -1.91309,-0.97548 -1.91309,-2.17879c0,-1.20332 0.85652,-2.1788 1.91309,-2.1788c1.05657,0 1.91309,0.97548 1.91309,2.1788z" fill="none" stroke-width="7.5"/><path d="M241.63845,194.83228c0,1.20332 -0.85652,2.17879 -1.91309,2.17879c-1.05657,0 -1.91309,-0.97548 -1.91309,-2.17879c0,-1.20332 0.85652,-2.1788 1.91309,-2.1788c1.05657,0 1.91309,0.97548 1.91309,2.1788z" fill="none" stroke-width="7.5"/><path d="M227.02927,181.43354c0,1.20332 -0.85652,2.17879 -1.91309,2.17879c-1.05657,0 -1.91309,-0.97548 -1.91309,-2.17879c0,-1.20332 0.85652,-2.1788 1.91309,-2.1788c1.05657,0 1.91309,0.97548 1.91309,2.1788z" fill="none" stroke-width="7.5"/><path d="M231.06092,191.27532c0,1.20332 -0.85652,2.17879 -1.91309,2.17879c-1.05657,0 -1.91309,-0.97548 -1.91309,-2.17879c0,-1.20332 0.85652,-2.1788 1.91309,-2.1788c1.05657,0 1.91309,0.97548 1.91309,2.1788z" fill="none" stroke-width="7.5"/></g></g></svg>