<svg version="1.1" xmlns="http://www.w3.org/2000/svg" xmlns:xlink="http://www.w3.org/1999/xlink" width="24.01283" height="23.86688" viewBox="0,0,24.01283,23.86688"><g transform="translate(-228.07519,-167.98393)"><g data-paper-data="{&quot;isPaintingLayer&quot;:true}" fill-rule="nonzero" stroke-linejoin="miter" stroke-miterlimit="10" stroke-dasharray="" stroke-dashoffset="0" style="mix-blend-mode: normal"><path d="M229.39027,190.59765c0,0 -0.3159,-0.43219 -0.31507,-1.55773c0.00354,-4.82758 0.01197,-17.75293 0.00224,-19.42934c-0.00206,-0.35463 0.31284,-0.43333 0.31284,-0.43333c0,0 0.11303,-0.19146 0.75995,-0.19331c2.3042,-0.00659 15.93533,0.00058 19.87314,0.00282c0.67455,0.00038 0.62162,0.06391 0.62162,0.06391c0,0 0.44304,0.39072 0.44304,0.93858c0,2.07379 0,15.06238 0,19.43038c0,0.89762 -0.50633,1.30461 -0.50633,1.30461c0,0 -0.3479,0.12658 -1.25446,0.12658c-2.60833,0 -15.36725,0 -19.17722,0c-0.6811,0 -0.75975,-0.25316 -0.75975,-0.25316z" fill="#fff700" stroke="#000000" stroke-width="2" stroke-linecap="butt"/><path d="M231.89366,179.82454v-7.87327h7.87327v7.87327z" fill="#ffffff" stroke="#000000" stroke-width="0" stroke-linecap="butt"/><path d="M240.40964,179.82454v-7.87327h7.87327v7.87327z" fill="#ffffff" stroke="#000000" stroke-width="0" stroke-linecap="butt"/><path d="M234.38418,185.20728h11.89024" fill="none" stroke="#000000" stroke-width="2" stroke-linecap="round"/><path d="M234.46452,177.41436v-3.0529h3.0529v3.0529z" fill="#000000" stroke="none" stroke-width="0" stroke-linecap="butt"/><path d="M242.90017,177.41436v-3.0529h3.0529v3.0529z" fill="#000000" stroke="none" stroke-width="0" stroke-linecap="butt"/></g></g></svg>